<?xml version="1.0" standalone="no"?><!DOCTYPE svg PUBLIC "-//W3C//DTD SVG 1.1//EN" "http://www.w3.org/Graphics/SVG/1.1/DTD/svg11.dtd"><svg height="1024" node-id="1" sillyvg="true" template-height="1024" template-width="1024" version="1.1" viewBox="0 0 1024 1024" width="1024" xmlns="http://www.w3.org/2000/svg" xmlns:xlink="http://www.w3.org/1999/xlink"><defs node-id="152"></defs><g node-id="558"><g node-id="595"><g node-id="632"><path d="M 853.00 789.60 L 855.50 782.30 L 858.50 775.00 L 862.20 767.70 L 866.60 760.40 L 874.60 749.10 L 156.60 740.80 L 160.20 869.10 L 878.20 869.10 L 871.80 863.30 L 866.30 857.30 L 861.70 851.30 L 857.90 845.20 L 854.80 839.00 L 852.40 832.60 L 850.80 826.10 L 849.80 819.30 L 849.50 812.40 L 849.90 805.10 L 851.00 797.50 L 853.00 789.60 Z" fill="#e7e5e5" fill-rule="nonzero" group-id="1,38,75" node-id="160" stroke="none" target-height="128.29999" target-width="721.6" target-x="156.6" target-y="740.8"></path></g></g></g><g node-id="559"><g node-id="596"><g node-id="633"><path d="M 863.00 763.60 L 865.40 759.50 L 868.30 755.70 L 871.80 752.20 L 875.80 748.80 L 166.20 734.80 L 156.60 820.40 L 163.70 816.20 L 172.40 812.10 L 182.70 807.80 L 195.00 803.50 L 209.40 799.20 L 226.30 794.90 L 245.80 790.60 L 268.20 786.40 L 293.80 782.40 L 323.40 778.20 L 355.50 774.50 L 390.50 771.30 L 428.50 768.50 L 469.60 766.40 L 514.00 764.80 L 562.00 763.80 L 613.60 763.60 L 669.00 764.10 L 728.60 765.40 L 792.30 767.60 L 860.60 770.80 L 863.00 763.60 Z" fill="#cececd" fill-rule="nonzero" group-id="2,39,76" node-id="171" stroke="none" target-height="85.60004" target-width="719.19995" target-x="156.6" target-y="734.8"></path></g></g></g><g node-id="560"><g node-id="597"><g node-id="634"><path d="M 889.00 748.80 L 889.00 714.80 L 185.40 714.80 L 178.60 715.10 L 172.40 715.90 L 166.80 717.30 L 161.70 719.20 L 157.20 721.50 L 153.00 724.40 L 151.40 725.90 L 151.00 725.90 L 144.10 732.90 L 138.60 739.40 L 133.80 746.00 L 129.60 752.90 L 125.90 760.00 L 122.80 767.40 L 120.20 775.10 L 118.30 782.90 L 117.20 790.70 L 116.60 798.50 L 116.80 806.30 L 117.60 814.20 L 119.10 822.10 L 121.40 830.20 L 124.30 838.40 L 128.10 846.80 L 132.70 855.30 L 138.20 864.10 L 147.90 877.60 L 151.60 881.30 L 155.70 884.60 L 160.40 887.30 L 165.60 889.40 L 171.50 891.00 L 178.00 892.00 L 185.40 892.40 L 889.00 892.40 L 889.00 858.40 L 189.50 858.50 L 186.20 858.20 L 182.90 857.30 L 179.40 855.90 L 176.00 853.90 L 173.10 851.50 L 170.70 848.50 L 168.80 845.10 L 167.40 841.10 L 166.50 836.30 L 166.20 830.80 L 166.20 775.90 L 166.50 770.50 L 167.40 765.90 L 168.80 761.90 L 170.70 758.50 L 173.10 755.60 L 176.00 753.20 L 179.40 751.10 L 192.60 748.80 L 889.00 748.80 Z" fill="#ffc23a" fill-rule="nonzero" group-id="3,40,77" node-id="182" stroke="none" target-height="177.60004" target-width="772.4" target-x="116.6" target-y="714.8"></path></g></g></g><g node-id="561"><g node-id="598"><g node-id="635"><path d="M 313.80 748.80 L 313.80 714.80 L 185.40 714.80 L 178.60 715.10 L 172.40 715.90 L 166.80 717.30 L 161.70 719.20 L 157.20 721.50 L 153.00 724.40 L 151.40 725.90 L 151.00 725.90 L 144.10 732.90 L 138.60 739.40 L 133.80 746.00 L 129.60 752.90 L 125.90 760.00 L 122.80 767.40 L 120.20 775.10 L 118.30 782.90 L 117.20 790.70 L 116.60 798.50 L 116.80 806.30 L 117.60 814.20 L 119.10 822.10 L 121.40 830.20 L 124.30 838.40 L 128.10 846.80 L 132.70 855.30 L 138.20 864.10 L 147.90 877.60 L 151.60 881.30 L 155.70 884.60 L 160.40 887.30 L 165.60 889.40 L 171.50 891.00 L 178.00 892.00 L 185.40 892.40 L 313.80 892.40 L 313.80 858.40 L 189.50 858.50 L 186.20 858.20 L 182.90 857.30 L 179.40 855.90 L 176.00 853.90 L 173.10 851.50 L 170.70 848.50 L 168.80 845.10 L 167.40 841.10 L 166.50 836.30 L 166.20 830.80 L 166.20 775.90 L 166.50 770.50 L 167.40 765.90 L 168.80 761.90 L 170.70 758.50 L 173.10 755.60 L 176.00 753.20 L 179.40 751.10 L 192.60 748.80 L 313.80 748.80 Z" fill="#f9a431" fill-rule="nonzero" group-id="4,41,78" node-id="193" stroke="none" target-height="177.60004" target-width="197.19998" target-x="116.6" target-y="714.8"></path></g></g></g><g node-id="562"><g node-id="599"><g node-id="636"><path d="M 362.60 803.60 L 343.00 803.90 L 361.40 820.80 L 365.60 826.60 L 369.20 832.60 L 372.20 838.80 L 374.60 845.20 L 376.40 851.80 L 377.60 858.60 L 378.20 865.70 L 378.20 873.10 L 406.60 840.80 L 445.80 863.90 L 443.40 856.30 L 440.10 848.10 L 435.80 839.10 L 431.10 831.30 L 426.40 824.80 L 421.60 819.30 L 416.80 814.80 L 411.90 811.20 L 406.90 808.40 L 401.80 806.40 L 390.80 804.90 L 377.90 803.90 L 362.60 803.60 Z" fill="#ea5645" fill-rule="nonzero" group-id="5,42,79" node-id="204" stroke="none" target-height="69.5" target-width="102.79999" target-x="343" target-y="803.6"></path></g></g></g><g node-id="563"><g node-id="600"><g node-id="637"><path d="M 450.60 193.10 L 450.20 189.50 L 449.20 186.20 L 447.40 183.10 L 445.60 181.30 L 443.80 180.10 L 441.90 179.40 L 439.80 179.10 L 337.00 179.10 L 334.70 179.40 L 332.60 180.10 L 330.70 181.40 L 329.00 183.10 L 327.20 186.20 L 326.20 189.50 L 325.80 193.10 L 325.80 702.40 L 326.20 706.00 L 327.20 709.10 L 329.00 711.90 L 330.70 713.70 L 332.60 715.00 L 334.70 715.70 L 337.00 715.90 L 439.80 715.90 L 441.90 715.70 L 443.80 715.00 L 445.60 713.80 L 447.40 711.90 L 449.20 709.10 L 450.20 706.00 L 450.60 702.40 L 450.60 193.10 Z" fill="#22b1b6" fill-rule="nonzero" group-id="6,43,80" node-id="215" stroke="none" target-height="536.80005" target-width="124.80002" target-x="325.8" target-y="179.1"></path></g></g></g><g node-id="564"><g node-id="601"><g node-id="638"><path d="M 575.40 256.80 L 575.00 253.70 L 574.00 250.90 L 572.20 248.40 L 570.50 246.70 L 568.70 245.60 L 566.70 245.00 L 564.60 244.80 L 461.80 244.80 L 459.00 245.10 L 456.40 246.30 L 453.80 248.40 L 452.00 250.90 L 451.00 253.70 L 450.60 256.80 L 450.60 703.90 L 451.00 707.00 L 452.00 709.80 L 453.80 712.40 L 456.40 714.40 L 459.00 715.60 L 461.80 715.90 L 564.60 715.90 L 566.70 715.70 L 568.70 715.10 L 570.50 714.00 L 572.20 712.40 L 574.00 709.80 L 575.00 707.00 L 575.40 703.90 L 575.40 256.80 Z" fill="#ea5645" fill-rule="nonzero" group-id="7,44,81" node-id="226" stroke="none" target-height="471.10004" target-width="124.80002" target-x="450.6" target-y="244.8"></path></g></g></g><g node-id="565"><g node-id="602"><g node-id="639"><path d="M 473.80 244.80 L 458.20 244.80 L 456.50 245.10 L 454.80 246.20 L 453.00 248.40 L 451.70 250.80 L 450.90 253.60 L 450.60 256.80 L 450.60 703.90 L 450.90 707.10 L 451.70 709.90 L 453.00 712.40 L 454.80 714.50 L 456.50 715.60 L 458.20 715.90 L 473.80 715.90 L 473.80 244.80 Z" fill="#d13431" fill-rule="nonzero" group-id="8,45,82" node-id="237" stroke="none" target-height="471.10004" target-width="23.199982" target-x="450.6" target-y="244.8"></path></g></g></g><g node-id="566"><g node-id="603"><g node-id="640"><path d="M 575.40 281.10 L 450.60 281.10 L 450.60 510.80 L 575.40 510.80 L 575.40 281.10 Z" fill="#63a343" fill-rule="nonzero" group-id="9,46,83" node-id="248" stroke="none" target-height="229.69998" target-width="124.80002" target-x="450.6" target-y="281.1"></path></g></g></g><g node-id="567"><g node-id="604"><g node-id="641"><path d="M 473.80 281.10 L 450.60 281.10 L 450.60 509.90 L 473.80 509.90 L 473.80 281.10 Z" fill="#4f823c" fill-rule="nonzero" group-id="10,47,84" node-id="259" stroke="none" target-height="228.79999" target-width="23.199982" target-x="450.6" target-y="281.1"></path></g></g></g><g node-id="568"><g node-id="605"><g node-id="642"><path d="M 365.00 178.40 L 338.60 178.40 L 336.10 178.60 L 333.80 179.30 L 331.50 180.60 L 329.40 182.40 L 327.80 184.60 L 326.70 187.10 L 326.00 189.60 L 325.80 192.40 L 325.80 702.40 L 326.00 705.10 L 326.70 707.60 L 327.80 709.80 L 329.40 711.90 L 331.50 713.70 L 333.80 715.00 L 336.10 715.70 L 338.60 715.90 L 365.00 715.90 L 365.00 178.40 Z" fill="#179998" fill-rule="nonzero" group-id="11,48,85" node-id="270" stroke="none" target-height="537.5" target-width="39.200012" target-x="325.8" target-y="178.4"></path></g></g></g><g node-id="569"><g node-id="606"><g node-id="643"><path d="M 450.60 413.10 L 450.60 299.60 L 325.80 299.60 L 325.80 413.10 L 450.60 413.10 Z" fill="#ffc23a" fill-rule="nonzero" group-id="12,49,86" node-id="281" stroke="none" target-height="113.5" target-width="124.80002" target-x="325.8" target-y="299.6"></path></g></g></g><g node-id="570"><g node-id="607"><g node-id="644"><path d="M 450.60 552.40 L 450.60 536.40 L 325.80 536.40 L 325.80 552.40 L 450.60 552.40 Z" fill="#ffc23a" fill-rule="nonzero" group-id="13,50,87" node-id="292" stroke="none" target-height="16" target-width="124.80002" target-x="325.8" target-y="536.4"></path></g></g></g><g node-id="571"><g node-id="608"><g node-id="645"><path d="M 365.00 413.10 L 365.00 299.60 L 325.80 299.60 L 325.80 413.10 L 365.00 413.10 Z" fill="#f9a431" fill-rule="nonzero" group-id="14,51,88" node-id="303" stroke="none" target-height="113.5" target-width="39.200012" target-x="325.8" target-y="299.6"></path></g></g></g><g node-id="572"><g node-id="609"><g node-id="646"><path d="M 365.00 552.40 L 365.00 536.40 L 325.80 536.40 L 325.80 552.40 L 365.00 552.40 Z" fill="#f9a431" fill-rule="nonzero" group-id="15,52,89" node-id="314" stroke="none" target-height="16" target-width="39.200012" target-x="325.8" target-y="536.4"></path></g></g></g><g node-id="573"><g node-id="610"><g node-id="647"><path d="M 530.60 190.40 L 528.20 191.80 L 526.20 193.50 L 524.60 195.70 L 523.40 198.40 L 522.70 201.40 L 522.50 204.30 L 522.90 207.10 L 523.80 209.90 L 757.40 709.60 L 759.00 712.20 L 760.90 714.30 L 763.20 715.90 L 765.80 717.10 L 768.60 717.90 L 771.30 718.00 L 774.00 717.70 L 776.60 716.80 L 899.00 659.60 L 901.60 657.90 L 903.70 656.00 L 905.40 653.80 L 906.60 651.10 L 907.30 648.30 L 907.40 645.60 L 906.90 642.80 L 905.80 639.90 L 672.60 140.40 L 671.00 137.70 L 669.10 135.60 L 666.80 134.00 L 664.20 132.80 L 661.20 131.90 L 658.30 131.70 L 655.60 132.10 L 530.60 190.40 Z" fill="#ffc23a" fill-rule="nonzero" group-id="16,53,90" node-id="325" stroke="none" target-height="586.3" target-width="384.90002" target-x="522.5" target-y="131.7"></path></g></g></g><g node-id="574"><g node-id="611"><g node-id="648"><path d="M 557.80 178.80 L 531.00 191.10 L 528.60 192.60 L 526.60 194.30 L 525.00 196.50 L 523.80 199.10 L 523.10 202.20 L 522.90 205.10 L 523.30 207.90 L 524.20 210.80 L 757.80 710.40 L 759.40 713.00 L 761.30 715.10 L 763.60 716.70 L 769.00 718.80 L 771.70 719.00 L 774.40 718.60 L 777.00 717.60 L 803.80 705.10 L 557.80 178.80 Z" fill="#f9a431" fill-rule="nonzero" group-id="17,54,91" node-id="336" stroke="none" target-height="540.2" target-width="280.89996" target-x="522.9" target-y="178.8"></path></g></g></g><g node-id="575"><g node-id="612"><g node-id="649"><path d="M 889.80 605.10 L 881.00 586.80 L 732.60 656.40 L 741.00 674.80 L 889.80 605.10 Z" fill="#63a343" fill-rule="nonzero" group-id="18,55,92" node-id="347" stroke="none" target-height="88" target-width="157.20001" target-x="732.6" target-y="586.8"></path></g></g></g><g node-id="576"><g node-id="613"><g node-id="650"><path d="M 875.40 574.40 L 866.60 555.90 L 718.20 625.60 L 726.60 643.90 L 875.40 574.40 Z" fill="#63a343" fill-rule="nonzero" group-id="19,56,93" node-id="358" stroke="none" target-height="88" target-width="157.20001" target-x="718.2" target-y="555.9"></path></g></g></g><g node-id="577"><g node-id="614"><g node-id="651"><path d="M 848.20 515.90 L 839.40 497.60 L 691.00 567.10 L 699.40 585.60 L 848.20 515.90 Z" fill="#63a343" fill-rule="nonzero" group-id="20,57,94" node-id="369" stroke="none" target-height="87.99997" target-width="157.20001" target-x="691" target-y="497.6"></path></g></g></g><g node-id="578"><g node-id="615"><g node-id="652"><path d="M 819.00 454.40 L 810.60 435.90 L 662.20 505.60 L 670.60 523.90 L 819.00 454.40 Z" fill="#63a343" fill-rule="nonzero" group-id="21,58,95" node-id="380" stroke="none" target-height="88.00003" target-width="156.79999" target-x="662.2" target-y="435.9"></path></g></g></g><g node-id="579"><g node-id="616"><g node-id="653"><path d="M 592.20 240.80 L 590.70 246.10 L 589.70 251.30 L 589.40 256.40 L 589.70 261.50 L 590.60 266.50 L 592.10 271.60 L 594.20 276.80 L 596.70 281.60 L 599.70 286.00 L 603.00 289.80 L 606.70 293.20 L 610.80 296.10 L 615.50 298.70 L 620.60 300.80 L 625.90 302.40 L 631.20 303.40 L 636.20 303.80 L 641.30 303.60 L 646.20 302.70 L 651.20 301.30 L 656.20 299.10 L 661.10 296.60 L 665.40 293.70 L 669.30 290.40 L 672.70 286.70 L 675.80 282.50 L 678.40 277.90 L 680.60 272.80 L 682.10 267.60 L 683.10 262.50 L 683.40 257.40 L 683.10 252.40 L 682.20 247.40 L 680.70 242.30 L 678.60 237.10 L 676.10 232.30 L 673.20 227.90 L 669.90 224.00 L 666.20 220.60 L 662.10 217.60 L 657.60 214.90 L 652.60 212.80 L 646.40 211.00 L 640.30 210.10 L 634.40 210.00 L 628.50 210.60 L 622.60 212.10 L 616.60 214.40 L 610.90 217.50 L 606.00 221.10 L 601.70 225.20 L 598.00 229.80 L 594.80 235.00 L 592.20 240.80 Z" fill="#22b1b6" fill-rule="nonzero" group-id="22,59,96" node-id="391" stroke="none" target-height="93.79999" target-width="94" target-x="589.4" target-y="210"></path></g></g></g><g node-id="580"><g node-id="617"><g node-id="654"><path d="M 325.80 149.60 L 325.50 146.60 L 324.80 143.90 L 323.60 141.50 L 321.80 139.10 L 319.50 137.20 L 317.00 135.80 L 314.30 135.00 L 311.40 134.80 L 176.20 134.80 L 173.30 135.00 L 170.70 135.90 L 168.30 137.20 L 166.20 139.10 L 164.20 141.50 L 162.90 144.00 L 162.10 146.60 L 161.80 149.60 L 161.80 701.10 L 162.10 704.10 L 162.90 706.70 L 164.20 709.20 L 166.20 711.60 L 168.30 713.50 L 170.70 714.80 L 173.30 715.70 L 176.20 715.90 L 311.40 715.90 L 314.30 715.70 L 317.00 714.90 L 319.50 713.50 L 321.80 711.60 L 323.60 709.20 L 324.80 706.80 L 325.50 704.10 L 325.80 701.10 L 325.80 149.60 Z" fill="#61313e" fill-rule="nonzero" group-id="23,60,97" node-id="402" stroke="none" target-height="581.10004" target-width="163.99998" target-x="161.8" target-y="134.8"></path></g></g></g><g node-id="581"><g node-id="618"><g node-id="655"><path d="M 325.80 149.60 L 325.50 146.60 L 324.80 143.90 L 323.60 141.50 L 321.80 139.10 L 319.50 137.20 L 317.00 135.80 L 314.30 135.00 L 311.40 134.80 L 176.20 134.80 L 173.30 135.00 L 170.70 135.90 L 168.30 137.20 L 166.20 139.10 L 164.20 141.50 L 162.90 144.00 L 162.10 146.60 L 161.80 149.60 L 161.80 701.10 L 162.10 704.10 L 162.90 706.70 L 164.20 709.20 L 166.20 711.60 L 168.30 713.50 L 170.70 714.80 L 173.30 715.70 L 176.20 715.90 L 311.40 715.90 L 314.30 715.70 L 317.00 714.90 L 319.50 713.50 L 321.80 711.60 L 323.60 709.20 L 324.80 706.80 L 325.50 704.10 L 325.80 701.10 L 325.80 149.60 Z" fill="#63a343" fill-rule="nonzero" group-id="24,61,98" node-id="413" stroke="none" target-height="581.10004" target-width="163.99998" target-x="161.8" target-y="134.8"></path></g></g></g><g node-id="582"><g node-id="619"><g node-id="656"><path d="M 205.80 135.90 L 176.20 135.90 L 173.30 136.20 L 170.70 137.10 L 168.30 138.40 L 164.30 142.50 L 162.90 144.90 L 162.10 147.60 L 161.80 150.80 L 161.80 701.90 L 162.10 705.10 L 162.90 707.80 L 164.30 710.20 L 168.30 714.30 L 170.70 715.60 L 173.30 716.50 L 176.20 716.80 L 205.80 716.80 L 205.80 135.90 Z" fill="#4f823c" fill-rule="nonzero" group-id="25,62,99" node-id="424" stroke="none" target-height="580.9" target-width="44" target-x="161.8" target-y="135.9"></path></g></g></g><g node-id="583"><g node-id="620"><g node-id="657"><path d="M 325.80 619.10 L 325.80 597.60 L 161.80 597.60 L 161.80 619.10 L 325.80 619.10 Z" fill="#ea5645" fill-rule="nonzero" group-id="26,63,100" node-id="435" stroke="none" target-height="21.5" target-width="163.99998" target-x="161.8" target-y="597.6"></path></g></g></g><g node-id="584"><g node-id="621"><g node-id="658"><path d="M 325.80 653.10 L 325.80 631.60 L 161.80 631.60 L 161.80 653.10 L 325.80 653.10 Z" fill="#ea5645" fill-rule="nonzero" group-id="27,64,101" node-id="446" stroke="none" target-height="21.5" target-width="163.99998" target-x="161.8" target-y="631.6"></path></g></g></g><g node-id="585"><g node-id="622"><g node-id="659"><path d="M 205.80 618.80 L 205.80 597.60 L 161.80 597.60 L 161.80 618.80 L 205.80 618.80 Z" fill="#d13431" fill-rule="nonzero" group-id="28,65,102" node-id="457" stroke="none" target-height="21.200012" target-width="44" target-x="161.8" target-y="597.6"></path></g></g></g><g node-id="586"><g node-id="623"><g node-id="660"><path d="M 205.80 653.10 L 205.80 631.60 L 161.80 631.60 L 161.80 653.10 L 205.80 653.10 Z" fill="#d13431" fill-rule="nonzero" group-id="29,66,103" node-id="468" stroke="none" target-height="21.5" target-width="44" target-x="161.8" target-y="631.6"></path></g></g></g><g node-id="587"><g node-id="624"><g node-id="661"><path d="M 325.80 357.60 L 325.80 186.40 L 161.80 186.40 L 161.80 357.60 L 325.80 357.60 Z" fill="#ea5645" fill-rule="nonzero" group-id="30,67,104" node-id="479" stroke="none" target-height="171.20001" target-width="163.99998" target-x="161.8" target-y="186.4"></path></g></g></g><g node-id="588"><g node-id="625"><g node-id="662"><path d="M 205.80 357.60 L 205.80 186.40 L 161.80 186.40 L 161.80 357.60 L 205.80 357.60 Z" fill="#d13431" fill-rule="nonzero" group-id="31,68,105" node-id="490" stroke="none" target-height="171.20001" target-width="44" target-x="161.8" target-y="186.4"></path></g></g></g><g node-id="589"><g node-id="626"><g node-id="663"><path d="M 325.80 315.60 L 325.80 239.60 L 161.80 239.60 L 161.80 315.60 L 325.80 315.60 Z" fill="#ffc23a" fill-rule="nonzero" group-id="32,69,106" node-id="501" stroke="none" target-height="76" target-width="163.99998" target-x="161.8" target-y="239.6"></path></g></g></g><g node-id="590"><g node-id="627"><g node-id="664"><path d="M 205.80 315.90 L 205.80 239.60 L 161.80 239.60 L 161.80 315.90 L 205.80 315.90 Z" fill="#f9a431" fill-rule="nonzero" group-id="33,70,107" node-id="512" stroke="none" target-height="76.29999" target-width="44" target-x="161.8" target-y="239.6"></path></g></g></g><g node-id="591"><g node-id="628"><g node-id="665"><path d="M 575.40 383.60 L 575.40 361.90 L 450.60 361.90 L 450.60 383.60 L 575.40 383.60 Z" fill="#ea5645" fill-rule="nonzero" group-id="34,71,108" node-id="523" stroke="none" target-height="21.700012" target-width="124.80002" target-x="450.6" target-y="361.9"></path></g></g></g><g node-id="592"><g node-id="629"><g node-id="666"><path d="M 575.40 417.60 L 575.40 395.90 L 450.60 395.90 L 450.60 417.60 L 575.40 417.60 Z" fill="#ea5645" fill-rule="nonzero" group-id="35,72,109" node-id="534" stroke="none" target-height="21.700012" target-width="124.80002" target-x="450.6" target-y="395.9"></path></g></g></g><g node-id="593"><g node-id="630"><g node-id="667"><path d="M 473.80 383.60 L 473.80 361.90 L 450.60 361.90 L 450.60 383.60 L 473.80 383.60 Z" fill="#d13431" fill-rule="nonzero" group-id="36,73,110" node-id="545" stroke="none" target-height="21.700012" target-width="23.199982" target-x="450.6" target-y="361.9"></path></g></g></g><path d="M 473.80 417.60 L 473.80 395.90 L 450.60 395.90 L 450.60 417.60 L 473.80 417.60 Z" fill="#d13431" fill-rule="nonzero" group-id="37,74,111" node-id="556" stroke="none" target-height="21.700012" target-width="23.199982" target-x="450.6" target-y="395.9"></path></svg>