<?xml version="1.0" standalone="no"?><!DOCTYPE svg PUBLIC "-//W3C//DTD SVG 1.1//EN" "http://www.w3.org/Graphics/SVG/1.1/DTD/svg11.dtd"><svg t="1725716872239" class="icon" viewBox="0 0 1024 1024" version="1.1" xmlns="http://www.w3.org/2000/svg" p-id="16346" width="256" height="256" xmlns:xlink="http://www.w3.org/1999/xlink"><path d="M814.56 831.72H209.64c-45.07 0-81.61-36.54-81.61-81.61V337.56c0-45.07 36.54-81.61 81.61-81.61h604.93c45.07 0 81.61 36.54 81.61 81.61v412.55c-0.01 45.07-36.54 81.61-81.62 81.61z" fill="#1890FF" p-id="16347"></path><path d="M814.56 833.22H209.64c-45.83 0-83.11-37.28-83.11-83.11V337.56c0-45.83 37.28-83.11 83.11-83.11h604.93c45.83 0 83.11 37.28 83.11 83.11v412.55c-0.01 45.83-37.29 83.11-83.12 83.11zM209.64 257.45c-44.17 0-80.11 35.94-80.11 80.11v412.55c0 44.17 35.94 80.11 80.11 80.11h604.93c44.17 0 80.11-35.94 80.11-80.11V337.56c0-44.17-35.94-80.11-80.11-80.11H209.64z" fill="#1890FF" p-id="16348"></path><path d="M257.08 577.9l22.96-3.19c0.61 14.87 3.37 25.05 8.27 30.54 4.9 5.49 11.68 8.23 20.34 8.23 6.38 0 11.89-1.48 16.53-4.45 4.63-2.96 7.83-6.99 9.58-12.08s2.62-13.21 2.62-24.36V438.5h25.45v132.63c0 16.29-1.95 28.9-5.84 37.84-3.89 8.94-10.06 15.76-18.5 20.45-8.44 4.69-18.35 7.04-29.72 7.04-16.88 0-29.8-4.91-38.77-14.74-8.97-9.83-13.28-24.43-12.92-43.82zM459.38 633.13L384.86 438.5h27.55l49.99 141.39c4.02 11.33 7.39 21.95 10.1 31.86 2.97-10.62 6.43-21.24 10.36-31.86l51.95-141.39h25.98l-75.31 194.63h-26.1zM582.84 633.13V438.5h38.31l45.53 137.81c4.2 12.83 7.26 22.44 9.18 28.81 2.19-7.08 5.6-17.48 10.23-31.2l46.05-135.42h34.24v194.63h-24.53v-162.9l-55.89 162.9H663l-55.63-165.69v165.69h-24.53z" fill="#FFFFFF" p-id="16349"></path></svg>